<svg xmlns="http://www.w3.org/2000/svg" width="600" height="210" viewBox="0 0 600 210">
<g>
<path d="M 60.50 121.00 C60.16,121.55 58.45,121.96 56.69,121.90 C53.64,121.81 53.61,121.76 56.00,121.00 C59.59,119.85 61.21,119.85 60.50,121.00 Z" fill="rgb(33,32,69)"/>
<path d="M 225.53 120.99 C221.64,122.87 219.40,123.00 191.26,123.00 C165.21,123.00 160.93,122.79 159.57,121.43 C157.76,119.61 157.53,117.41 159.06,116.46 C159.65,116.10 173.76,115.84 190.43,115.88 C219.19,115.95 220.82,115.85 222.49,114.01 C223.45,112.95 223.98,111.38 223.65,110.54 C223.14,109.21 219.35,109.00 195.28,108.99 C179.98,108.99 165.89,108.54 163.93,108.00 C158.49,106.49 155.71,102.95 155.71,97.56 C155.71,95.08 156.31,92.33 157.03,91.46 C160.54,87.24 162.56,87.00 195.30,87.00 C223.93,87.00 226.83,87.15 228.27,88.75 C229.66,90.30 229.68,90.73 228.38,92.50 C226.98,94.41 225.46,94.52 195.22,95.00 C166.55,95.45 163.49,95.66 163.20,97.18 C162.57,100.48 166.32,100.94 195.13,101.08 C217.18,101.18 224.10,101.52 226.19,102.60 C234.30,106.79 233.93,116.92 225.53,120.99 ZM 330.28 121.63 C327.80,122.69 320.27,123.00 297.22,123.00 C265.17,123.00 263.46,122.74 264.16,118.05 L 264.50 115.72 L 295.06 115.92 C323.30,116.11 325.80,115.98 327.88,114.30 C329.33,113.12 329.89,111.89 329.48,110.80 C328.89,109.28 325.90,109.08 299.16,108.80 C266.93,108.47 265.18,108.19 262.43,102.85 C259.58,97.35 261.78,91.18 267.68,88.13 C269.17,87.36 280.05,87.00 301.83,87.00 C330.05,87.00 333.86,87.19 334.39,88.58 C335.19,90.67 335.15,91.22 334.02,93.00 C333.22,94.26 328.08,94.58 301.29,95.00 C269.54,95.50 269.50,95.50 269.19,97.69 C268.69,101.21 273.23,101.72 302.00,101.33 C331.07,100.94 333.00,101.23 335.75,106.39 C339.50,113.44 337.70,118.47 330.28,121.63 ZM 524.80 121.80 C523.35,123.25 522.08,123.28 519.71,121.90 C518.11,120.96 517.93,119.30 518.05,105.88 C518.18,92.06 518.35,90.75 520.28,88.95 C521.47,87.85 523.79,87.00 525.63,87.00 C529.36,87.00 533.27,90.09 547.20,104.09 C552.07,108.99 556.84,113.00 557.78,112.99 C558.73,112.99 564.53,107.93 570.69,101.74 C584.68,87.68 585.57,87.00 590.15,87.00 C596.30,87.00 597.00,88.96 597.00,106.19 C597.00,119.91 596.86,121.00 595.00,122.00 C593.58,122.76 592.42,122.76 591.00,122.00 C589.17,121.02 589.00,119.91 589.00,108.96 C589.00,102.38 588.66,97.00 588.23,97.00 C587.81,97.00 581.87,102.61 575.04,109.46 C567.20,117.32 561.58,122.15 559.85,122.53 C555.35,123.52 550.98,120.60 539.55,108.96 C533.63,102.93 528.16,98.00 527.40,98.00 C526.28,98.00 526.00,100.30 526.00,109.30 C526.00,116.76 525.59,121.01 524.80,121.80 ZM 505.77 122.16 C505.07,122.61 490.33,122.97 473.00,122.98 C446.49,122.99 441.03,122.74 438.50,121.44 C433.30,118.75 432.86,117.81 432.80,109.39 L 432.75 101.50 L 466.62 101.24 C485.26,101.10 501.51,101.22 502.75,101.51 C505.25,102.10 505.86,105.74 503.80,107.80 C502.92,108.68 494.31,109.00 471.30,109.00 C440.79,109.00 440.00,109.05 440.00,110.98 C440.00,115.58 442.52,115.94 474.53,115.90 C491.01,115.88 505.25,116.15 506.18,116.51 C508.07,117.24 507.81,120.87 505.77,122.16 ZM 48.26 119.47 C36.94,121.16 12.91,121.42 9.00,119.90 C5.85,118.67 3.97,116.24 4.70,114.35 C5.16,113.14 5.62,113.23 7.38,114.85 C10.28,117.53 16.21,118.99 24.20,118.99 L 30.89 119.00 L 27.95 113.40 C24.45,106.76 24.25,102.88 27.11,97.49 C29.61,92.78 31.56,90.80 35.86,88.57 C38.65,87.13 42.90,86.96 70.27,87.21 C100.64,87.49 101.51,87.56 101.76,89.50 C102.38,94.42 102.12,94.47 69.79,95.00 C42.37,95.45 39.24,95.68 36.75,97.37 C34.44,98.93 34.00,99.94 34.00,103.68 C34.00,109.53 35.21,111.56 40.24,114.12 C43.81,115.95 45.59,116.18 52.46,115.75 C72.71,114.46 105.60,103.89 116.75,95.07 C120.16,92.37 120.81,90.21 118.80,88.20 C117.07,86.47 119.16,86.72 121.78,88.56 C124.65,90.57 124.58,92.15 121.47,95.25 C112.98,103.75 79.66,114.77 48.26,119.47 ZM 387.07 121.96 C386.96,122.02 386.86,122.07 386.77,122.12 C385.82,122.64 385.31,122.91 384.82,122.89 C384.21,122.87 383.61,122.42 382.22,121.44 C380.13,119.98 380.00,119.17 380.00,107.44 L 380.00 95.00 L 366.57 95.00 C350.75,95.00 348.24,94.35 348.45,90.33 L 348.60 87.50 L 420.50 87.50 L 420.84 89.94 C421.46,94.28 418.96,95.00 403.31,95.00 L 389.00 95.00 L 389.00 107.96 C389.00,119.76 388.83,121.02 387.07,121.96 ZM 506.45 93.89 C505.47,94.86 436.73,95.01 434.37,94.03 C431.59,92.88 432.26,88.43 435.35,87.60 C439.20,86.57 504.01,86.94 506.01,88.00 C507.77,88.95 508.02,92.31 506.45,93.89 ZM 249.29 121.23 C247.31,123.42 245.62,123.47 243.57,121.43 C242.28,120.14 242.00,117.14 242.00,104.63 C242.00,94.12 242.37,89.03 243.20,88.20 C244.97,86.43 248.80,86.74 249.83,88.75 C250.33,89.71 250.77,97.02 250.82,104.98 C250.88,116.94 250.62,119.77 249.29,121.23 ZM 60.50 121.00 C60.96,120.26 60.45,119.99 59.05,120.21 C61.07,119.85 62.80,119.56 63.50,119.47 C64.60,119.32 69.10,118.35 73.50,117.30 C81.48,115.40 98.32,114.85 100.83,116.40 C102.66,117.52 102.20,120.82 100.07,121.96 C98.85,122.62 88.03,122.94 70.82,122.85 C55.79,122.77 44.85,122.54 46.50,122.34 C48.15,122.15 52.20,121.48 55.50,120.86 C56.54,120.67 57.62,120.47 58.63,120.29 C57.93,120.43 57.05,120.66 56.00,121.00 C53.61,121.76 53.64,121.81 56.69,121.90 C58.45,121.96 60.16,121.55 60.50,121.00 ZM 249.43 80.43 C248.56,81.29 247.55,81.96 247.18,81.92 C244.18,81.57 241.00,78.74 241.00,76.42 C241.00,75.77 242.18,74.46 243.62,73.51 C245.84,72.06 246.62,71.99 248.62,73.07 C251.38,74.54 251.77,78.09 249.43,80.43 Z" fill="rgb(62,59,113)"/>
<path d="M 0.00 105.00 L 0.00 0.00 L 300.00 0.00 L 600.00 0.00 L 600.00 105.00 L 600.00 210.00 L 300.00 210.00 L 0.00 210.00 L 0.00 105.00 ZM 100.07 121.96 C102.20,120.82 102.66,117.52 100.83,116.40 C98.32,114.85 81.48,115.40 73.50,117.30 C69.10,118.35 64.60,119.32 63.50,119.47 C62.40,119.62 58.80,120.24 55.50,120.86 C52.20,121.48 48.15,122.15 46.50,122.34 C44.85,122.54 55.79,122.77 70.82,122.85 C88.03,122.94 98.85,122.62 100.07,121.96 ZM 225.53 120.99 C233.93,116.92 234.30,106.79 226.19,102.60 C224.10,101.52 217.18,101.18 195.13,101.08 C166.32,100.94 162.57,100.48 163.20,97.18 C163.49,95.66 166.55,95.45 195.22,95.00 C225.46,94.52 226.98,94.41 228.38,92.50 C229.68,90.73 229.66,90.30 228.27,88.75 C226.83,87.15 223.93,87.00 195.30,87.00 C162.56,87.00 160.54,87.24 157.03,91.46 C156.31,92.33 155.71,95.08 155.71,97.56 C155.71,102.95 158.49,106.49 163.93,108.00 C165.89,108.54 179.98,108.99 195.28,108.99 C219.35,109.00 223.14,109.21 223.65,110.54 C223.98,111.38 223.45,112.95 222.49,114.01 C220.82,115.85 219.19,115.95 190.43,115.88 C173.76,115.84 159.65,116.10 159.06,116.46 C157.53,117.41 157.76,119.61 159.57,121.43 C160.93,122.79 165.21,123.00 191.26,123.00 C219.40,123.00 221.64,122.87 225.53,120.99 ZM 249.29 121.23 C250.62,119.77 250.88,116.94 250.82,104.98 C250.77,97.02 250.33,89.71 249.83,88.75 C248.80,86.74 244.97,86.43 243.20,88.20 C242.37,89.03 242.00,94.12 242.00,104.63 C242.00,117.14 242.28,120.14 243.57,121.43 C245.62,123.47 247.31,123.42 249.29,121.23 ZM 330.28 121.63 C337.70,118.47 339.50,113.44 335.75,106.39 C333.00,101.23 331.07,100.94 302.00,101.33 C273.23,101.72 268.69,101.21 269.19,97.69 C269.50,95.50 269.54,95.50 301.29,95.00 C328.08,94.58 333.22,94.26 334.02,93.00 C335.15,91.22 335.19,90.67 334.39,88.58 C333.86,87.19 330.05,87.00 301.83,87.00 C280.05,87.00 269.17,87.36 267.68,88.13 C261.78,91.18 259.58,97.35 262.43,102.85 C265.18,108.19 266.93,108.47 299.16,108.80 C325.90,109.08 328.89,109.28 329.48,110.80 C329.89,111.89 329.33,113.12 327.88,114.30 C325.80,115.98 323.30,116.11 295.06,115.92 L 264.50 115.72 L 264.16 118.05 C263.46,122.74 265.17,123.00 297.22,123.00 C320.27,123.00 327.80,122.69 330.28,121.63 ZM 387.07 121.96 C388.83,121.02 389.00,119.76 389.00,107.96 L 389.00 95.00 L 403.31 95.00 C418.96,95.00 421.46,94.28 420.84,89.94 L 420.50 87.50 L 384.55 87.50 L 348.60 87.50 L 348.45 90.33 C348.24,94.35 350.75,95.00 366.57,95.00 L 380.00 95.00 L 380.00 107.44 C380.00,119.17 380.13,119.98 382.22,121.44 C384.86,123.29 384.63,123.27 387.07,121.96 ZM 505.77 122.16 C507.81,120.87 508.07,117.24 506.18,116.51 C505.25,116.15 491.01,115.88 474.53,115.90 C442.52,115.94 440.00,115.58 440.00,110.98 C440.00,109.05 440.79,109.00 471.30,109.00 C494.31,109.00 502.92,108.68 503.80,107.80 C505.86,105.74 505.25,102.10 502.75,101.51 C501.51,101.22 485.26,101.10 466.62,101.24 L 432.75 101.50 L 432.80 109.39 C432.86,117.81 433.30,118.75 438.50,121.44 C441.03,122.74 446.49,122.99 473.00,122.98 C490.33,122.97 505.07,122.61 505.77,122.16 ZM 524.80 121.80 C525.59,121.01 526.00,116.76 526.00,109.30 C526.00,100.30 526.28,98.00 527.40,98.00 C528.16,98.00 533.63,102.93 539.55,108.96 C550.98,120.60 555.35,123.52 559.85,122.53 C561.58,122.15 567.20,117.32 575.04,109.46 C581.87,102.61 587.81,97.00 588.23,97.00 C588.66,97.00 589.00,102.38 589.00,108.96 C589.00,119.91 589.17,121.02 591.00,122.00 C592.42,122.76 593.58,122.76 595.00,122.00 C596.86,121.00 597.00,119.91 597.00,106.19 C597.00,88.96 596.30,87.00 590.15,87.00 C585.57,87.00 584.68,87.68 570.69,101.74 C564.53,107.93 558.73,112.99 557.78,112.99 C556.84,113.00 552.07,108.99 547.20,104.09 C533.27,90.09 529.36,87.00 525.63,87.00 C523.79,87.00 521.47,87.85 520.28,88.95 C518.35,90.75 518.18,92.06 518.05,105.88 C517.93,119.30 518.11,120.96 519.71,121.90 C522.08,123.28 523.35,123.25 524.80,121.80 ZM 48.26 119.47 C79.66,114.77 112.98,103.75 121.47,95.25 C124.58,92.15 124.65,90.57 121.78,88.56 C119.16,86.72 117.07,86.47 118.80,88.20 C120.81,90.21 120.16,92.37 116.75,95.07 C105.60,103.89 72.71,114.46 52.46,115.75 C45.59,116.18 43.81,115.95 40.24,114.12 C35.21,111.56 34.00,109.53 34.00,103.68 C34.00,99.94 34.44,98.93 36.75,97.37 C39.24,95.68 42.37,95.45 69.79,95.00 C102.12,94.47 102.38,94.42 101.76,89.50 C101.51,87.56 100.64,87.49 70.27,87.21 C42.90,86.96 38.65,87.13 35.86,88.57 C31.56,90.80 29.61,92.78 27.11,97.49 C24.25,102.88 24.45,106.76 27.95,113.40 L 30.89 119.00 L 24.20 118.99 C16.21,118.99 10.28,117.53 7.38,114.85 C5.62,113.23 5.16,113.14 4.70,114.35 C3.97,116.24 5.85,118.67 9.00,119.90 C12.91,121.42 36.94,121.16 48.26,119.47 ZM 506.45 93.89 C508.02,92.31 507.77,88.95 506.01,88.00 C504.01,86.94 439.20,86.57 435.35,87.60 C432.26,88.43 431.59,92.88 434.37,94.03 C436.73,95.01 505.47,94.86 506.45,93.89 ZM 249.43 80.43 C251.77,78.09 251.38,74.54 248.62,73.07 C246.62,71.99 245.84,72.06 243.62,73.51 C242.18,74.46 241.00,75.77 241.00,76.42 C241.00,78.74 244.18,81.57 247.18,81.92 C247.55,81.96 248.56,81.29 249.43,80.43 Z" fill="rgb(254,254,254)"/>
</g>
</svg>