<svg xmlns="http://www.w3.org/2000/svg" viewBox="0 0 800 800" width="100%" height="100%">
  <rect width="800" height="800" fill="rgb(1,79,153)"/>
  
  <g transform="translate(0, 311.5)">
    <path d="M 0.00 0.00 L 800.00 0.00 L 800.00 177.00 L 0.00 177.00 ZM 132.25 130.51 C143.11,133.55 157.23,130.19 165.74,122.54 C186.05,104.28 182.23,65.43 158.94,53.49 C149.10,48.45 134.88,48.23 124.83,52.95 C101.40,63.96 95.90,100.91 114.80,120.33 C120.07,125.74 124.53,128.35 132.25,130.51 ZM 276.05 130.97 C278.50,131.48 283.04,131.71 286.14,131.48 C299.86,130.45 310.44,123.08 316.76,110.15 C320.42,102.67 320.50,102.25 320.50,91.00 C320.50,76.27 318.20,69.49 310.32,60.98 C301.60,51.56 290.59,47.91 277.30,50.03 C264.24,52.12 254.98,59.28 249.26,71.72 C244.52,82.01 244.98,101.07 250.21,111.39 C254.94,120.72 265.58,128.78 276.05,130.97 ZM 713.00 126.19 C716.03,130.97 718.80,134.90 719.16,134.94 C719.53,134.97 720.94,133.01 722.30,130.57 C729.74,117.27 742.21,104.04 756.00,94.82 C760.12,92.06 763.70,89.60 763.95,89.36 C764.65,88.69 720.68,45.00 719.31,45.00 C717.99,45.00 673.35,88.72 674.06,89.33 C674.30,89.54 677.88,91.90 682.00,94.57 C692.14,101.14 706.23,115.51 713.00,126.19 ZM 488.29 128.79 C488.99,129.67 491.40,129.99 495.81,129.79 L 502.31 129.50 L 510.03 100.70 C514.28,84.86 518.00,71.67 518.29,71.38 C518.91,70.75 519.97,74.44 527.51,103.47 C530.65,115.55 533.60,126.46 534.08,127.72 C534.86,129.77 535.60,130.00 541.42,130.00 C544.97,130.00 548.12,129.62 548.40,129.16 C548.69,128.69 553.20,112.83 558.43,93.91 C563.65,74.98 568.40,57.93 568.97,56.01 C569.53,54.09 570.00,52.17 570.00,51.76 C570.00,51.34 566.89,51.00 563.08,51.00 L 556.17 51.00 L 548.94 80.53 C544.97,96.77 541.52,109.86 541.28,109.62 C540.90,109.24 534.34,84.60 527.85,59.21 L 525.73 50.92 L 518.64 51.21 L 511.54 51.50 L 503.81 80.38 C499.56,96.26 495.91,109.42 495.71,109.62 C495.37,109.96 490.83,91.79 484.18,63.50 L 481.36 51.50 L 474.10 51.20 C467.33,50.93 466.88,51.04 467.44,52.83 C468.10,54.90 480.09,99.91 484.53,117.00 C486.03,122.78 487.72,128.08 488.29,128.79 ZM 357.36 131.02 C362.42,132.09 371.78,131.48 375.65,129.83 C377.22,129.16 380.66,127.07 383.30,125.18 C385.94,123.30 388.26,121.93 388.46,122.13 C388.66,122.33 389.22,124.07 389.72,126.00 C390.55,129.22 390.95,129.52 394.81,129.81 L 399.00 130.11 L 399.00 88.00 L 366.00 88.00 L 366.00 99.00 L 376.50 99.00 C382.27,99.00 387.00,99.37 387.00,99.82 C387.00,102.37 383.69,111.12 381.83,113.49 C376.53,120.23 363.58,122.09 354.25,117.44 C344.79,112.72 340.31,102.40 341.20,87.36 C342.22,70.07 350.25,61.07 364.68,61.02 C368.09,61.01 372.14,61.48 373.68,62.06 C377.68,63.57 382.77,68.78 384.06,72.68 C385.15,75.98 385.19,76.00 391.58,76.00 C397.58,76.00 398.00,75.85 397.98,73.75 C397.94,70.29 394.24,62.87 390.69,59.16 C380.98,49.00 360.92,46.40 347.06,53.49 C344.55,54.78 340.62,57.78 338.33,60.17 C329.81,69.02 326.41,79.45 327.25,94.17 C327.82,104.31 331.31,113.02 337.58,119.95 C341.72,124.54 350.83,129.63 357.36,131.02 ZM 402.74 129.41 C403.07,129.74 406.15,130.00 409.59,130.00 L 415.86 130.00 L 417.81 124.75 C418.88,121.86 420.60,117.13 421.62,114.23 L 423.49 108.95 L 439.38 109.23 L 455.27 109.50 L 458.56 118.71 C460.36,123.78 462.13,128.40 462.48,128.96 C462.83,129.53 466.29,130.00 470.18,130.00 C476.42,130.00 477.18,129.80 476.74,128.25 C476.27,126.58 459.43,83.04 450.83,61.25 L 446.78 51.00 L 432.23 51.00 L 427.50 63.25 C424.89,69.99 419.17,84.72 414.78,96.00 C403.06,126.09 402.10,128.76 402.74,129.41 ZM 556.63 129.22 C556.90,129.65 559.97,130.00 563.46,130.00 L 569.81 130.00 L 573.62 119.50 L 577.42 109.00 L 593.31 109.00 C607.58,109.00 609.23,109.18 609.66,110.75 C609.92,111.71 611.57,116.32 613.32,121.00 L 616.50 129.50 L 622.90 129.80 C626.42,129.97 629.63,129.74 630.05,129.30 C630.70,128.61 623.18,108.35 605.34,62.71 L 600.74 50.92 L 585.87 51.50 L 578.53 70.50 C574.49,80.95 567.81,98.26 563.67,108.97 C559.54,119.67 556.37,128.79 556.63,129.22 ZM 186.71 129.38 C187.10,129.77 190.14,129.95 193.46,129.79 L 199.50 129.50 L 199.78 116.44 L 200.06 103.38 L 205.53 97.97 C208.12,95.41 209.44,93.76 210.79,93.73 C212.53,93.70 214.32,96.35 218.97,103.20 C219.65,104.21 220.40,105.31 221.21,106.50 C225.34,112.55 230.67,120.31 233.05,123.75 L 237.38 130.00 L 245.13 130.00 C249.39,130.00 253.07,129.66 253.31,129.25 C253.54,128.84 247.23,119.50 239.29,108.50 C231.34,97.50 223.98,87.15 222.93,85.50 L 221.02 82.50 L 236.75 66.75 L 252.48 51.00 L 235.52 51.00 L 217.76 68.74 L 200.00 86.48 L 200.00 51.00 L 186.00 51.00 L 186.00 89.83 C186.00,111.19 186.32,128.99 186.71,129.38 ZM 293.69 118.05 C289.11,120.13 279.25,120.57 275.03,118.89 C269.77,116.79 265.72,112.62 262.73,106.23 C260.11,100.64 259.68,98.55 259.63,91.12 C259.52,77.02 264.04,67.57 273.12,62.94 C278.40,60.25 288.68,60.29 294.05,63.03 C302.06,67.11 307.00,77.59 307.00,90.50 C307.00,103.68 301.85,114.35 293.69,118.05 ZM 150.13 118.70 C146.09,120.56 136.12,120.24 131.43,118.11 C120.91,113.33 114.91,97.42 118.00,82.48 C121.00,67.95 128.77,61.00 142.01,61.00 C156.95,61.00 165.82,73.22 164.81,92.41 C164.13,105.16 158.79,114.73 150.13,118.70 ZM 68.00 99.68 L 68.00 130.00 L 81.00 130.00 L 81.00 99.59 L 87.43 89.04 C90.96,83.24 97.49,72.67 101.93,65.55 C106.37,58.43 110.00,52.25 110.00,51.80 C110.00,51.36 106.69,51.00 102.64,51.00 L 95.27 51.00 L 85.41 68.00 C79.99,77.35 75.26,85.00 74.90,85.00 C74.53,85.00 69.64,77.35 64.03,68.00 L 53.82 51.00 L 37.80 51.00 L 39.75 54.25 C40.83,56.04 47.62,66.99 54.85,78.59 ZM 604.39 98.17 C604.11,98.63 598.96,99.00 592.94,99.00 C584.20,99.00 582.00,98.72 582.00,97.59 C582.00,95.69 591.89,67.72 592.94,66.67 C593.82,65.78 594.58,67.63 600.94,85.92 C603.12,92.20 604.68,97.71 604.39,98.17 ZM 450.44 98.10 C449.54,99.56 429.03,99.23 428.46,97.75 C427.89,96.23 438.23,66.92 439.43,66.67 C440.52,66.45 451.18,96.89 450.44,98.10 Z" fill="rgb(1,79,153)"/>
    <path d="M 132.25 130.51 C124.53,128.35 120.07,125.74 114.80,120.33 C95.90,100.91 101.40,63.96 124.83,52.95 C134.88,48.23 149.10,48.45 158.94,53.49 C182.23,65.43 186.05,104.28 165.74,122.54 C157.23,130.19 143.11,133.55 132.25,130.51 ZM 276.05 130.97 C265.58,128.78 254.94,120.72 250.21,111.39 C244.98,101.07 244.52,82.01 249.26,71.72 C254.98,59.28 264.24,52.12 277.30,50.03 C290.59,47.91 301.60,51.56 310.32,60.98 C318.20,69.49 320.50,76.27 320.50,91.00 C320.50,102.25 320.42,102.67 316.76,110.15 C310.44,123.08 299.86,130.45 286.14,131.48 C283.04,131.71 278.50,131.48 276.05,130.97 ZM 488.29 128.79 C487.72,128.08 486.03,122.78 484.53,117.00 C480.09,99.91 468.10,54.90 467.44,52.83 C466.88,51.04 467.33,50.93 474.10,51.20 L 481.36 51.50 L 484.18 63.50 C490.83,91.79 495.37,109.96 495.71,109.62 C495.91,109.42 499.56,96.26 503.81,80.38 L 511.54 51.50 L 518.64 51.21 L 525.73 50.92 L 527.85 59.21 C534.34,84.60 540.90,109.24 541.28,109.62 C541.52,109.86 544.97,96.77 548.94,80.53 L 556.17 51.00 L 563.08 51.00 C566.89,51.00 570.00,51.34 570.00,51.76 C570.00,52.17 569.53,54.09 568.97,56.01 C568.40,57.93 563.65,74.98 558.43,93.91 C553.20,112.83 548.69,128.69 548.40,129.16 C548.12,129.62 544.97,130.00 541.42,130.00 C535.60,130.00 534.86,129.77 534.08,127.72 C533.60,126.46 530.65,115.55 527.51,103.47 C519.97,74.44 518.91,70.75 518.29,71.38 C518.00,71.67 514.28,84.86 510.03,100.70 L 502.31 129.50 L 495.81 129.79 C491.40,129.99 488.99,129.67 488.29,128.79 ZM 357.36 131.02 C350.83,129.63 341.72,124.54 337.58,119.95 C331.31,113.02 327.82,104.31 327.25,94.17 C326.41,79.45 329.81,69.02 338.33,60.17 C340.62,57.78 344.55,54.78 347.06,53.49 C360.92,46.40 380.98,49.00 390.69,59.16 C394.24,62.87 397.94,70.29 397.98,73.75 C398.00,75.85 397.58,76.00 391.58,76.00 C385.19,76.00 385.15,75.98 384.06,72.68 C382.77,68.78 377.68,63.57 373.68,62.06 C372.14,61.48 368.09,61.01 364.68,61.02 C350.25,61.07 342.22,70.07 341.20,87.36 C340.31,102.40 344.79,112.72 354.25,117.44 C363.58,122.09 376.53,120.23 381.83,113.49 C383.69,111.12 387.00,102.37 387.00,99.82 C387.00,99.37 382.27,99.00 376.50,99.00 L 366.00 99.00 L 366.00 88.00 L 399.00 88.00 L 399.00 130.11 L 394.81 129.81 C390.95,129.52 390.55,129.22 389.72,126.00 C389.22,124.07 388.66,122.33 388.46,122.13 C388.26,121.93 385.94,123.30 383.30,125.18 C380.66,127.07 377.22,129.16 375.65,129.83 C371.78,131.48 362.42,132.09 357.36,131.02 ZM 402.74 129.41 C402.10,128.76 403.06,126.09 414.78,96.00 C419.17,84.72 424.89,69.99 427.50,63.25 L 432.23 51.00 L 446.78 51.00 L 450.83 61.25 C459.43,83.04 476.27,126.58 476.74,128.25 C477.18,129.80 476.42,130.00 470.18,130.00 C466.29,130.00 462.83,129.53 462.48,128.96 C462.13,128.40 460.36,123.78 458.56,118.71 L 455.27 109.50 L 439.38 109.23 L 423.49 108.95 L 421.62 114.23 C420.60,117.13 418.88,121.86 417.81,124.75 L 415.86 130.00 L 409.59 130.00 C406.15,130.00 403.07,129.74 402.74,129.41 ZM 556.63 129.22 C556.37,128.79 559.54,119.67 563.67,108.97 C567.81,98.26 574.49,80.95 578.53,70.50 L 585.87 51.50 L 600.74 50.92 L 605.34 62.71 C623.18,108.35 630.70,128.61 630.05,129.30 C629.63,129.74 626.42,129.97 622.90,129.80 L 616.50 129.50 L 613.32 121.00 C611.57,116.32 609.92,111.71 609.66,110.75 C609.23,109.18 607.58,109.00 593.31,109.00 L 577.42 109.00 L 573.62 119.50 L 569.81 130.00 L 563.46 130.00 C559.97,130.00 556.90,129.65 556.63,129.22 ZM 186.71 129.38 C186.32,128.99 186.00,111.19 186.00,89.83 L 186.00 51.00 L 200.00 51.00 L 200.00 86.48 L 217.76 68.74 L 235.52 51.00 L 252.48 51.00 L 236.75 66.75 L 221.02 82.50 L 222.93 85.50 C223.98,87.15 231.34,97.50 239.29,108.50 C247.23,119.50 253.54,128.84 253.31,129.25 C253.07,129.66 249.39,130.00 245.13,130.00 L 237.38 130.00 L 233.05 123.75 C230.67,120.31 225.34,112.55 221.21,106.50 C220.40,105.31 219.65,104.21 218.97,103.20 C214.32,96.35 212.53,93.70 210.79,93.73 C209.44,93.76 208.12,95.41 205.53,97.97 L 200.06 103.38 L 199.78 116.44 L 199.50 129.50 L 193.46 129.79 C190.14,129.95 187.10,129.77 186.71,129.38 ZM 293.69 118.05 C301.85,114.35 307.00,103.68 307.00,90.50 C307.00,77.59 302.06,67.11 294.05,63.03 C288.68,60.29 278.40,60.25 273.12,62.94 C264.04,67.57 259.52,77.02 259.63,91.12 C259.68,98.55 260.11,100.64 262.73,106.23 C265.72,112.62 269.77,116.79 275.03,118.89 C279.25,120.57 289.11,120.13 293.69,118.05 ZM 150.13 118.70 C158.79,114.73 164.13,105.16 164.81,92.41 C165.82,73.22 156.95,61.00 142.01,61.00 C128.77,61.00 121.00,67.95 118.00,82.48 C114.91,97.42 120.91,113.33 131.43,118.11 C136.12,120.24 146.09,120.56 150.13,118.70 ZM 68.00 99.68 L 54.85 78.59 C47.62,66.99 40.83,56.04 39.75,54.25 L 37.80 51.00 L 53.82 51.00 L 64.03 68.00 C69.64,77.35 74.53,85.00 74.90,85.00 C75.26,85.00 79.99,77.35 85.41,68.00 L 95.27 51.00 L 102.64 51.00 C106.69,51.00 110.00,51.36 110.00,51.80 C110.00,52.25 106.37,58.43 101.93,65.55 C97.49,72.67 90.96,83.24 87.43,89.04 L 81.00 99.59 L 81.00 130.00 L 68.00 130.00 ZM 604.39 98.17 C604.68,97.71 603.12,92.20 600.94,85.92 C594.58,67.63 593.82,65.78 592.94,66.67 C591.89,67.72 582.00,95.69 582.00,97.59 C582.00,98.72 584.20,99.00 592.94,99.00 C598.96,99.00 604.11,98.63 604.39,98.17 ZM 450.44 98.10 C451.18,96.89 440.52,66.45 439.43,66.67 C438.23,66.92 427.89,96.23 428.46,97.75 C429.03,99.23 449.54,99.56 450.44,98.10 Z" fill="rgb(248,253,252)"/>
    <path d="M 713.00 126.19 C706.23,115.51 692.14,101.14 682.00,94.57 C677.88,91.90 674.30,89.54 674.06,89.33 C673.35,88.72 717.99,45.00 719.31,45.00 C720.68,45.00 764.65,88.69 763.95,89.36 C763.70,89.60 760.12,92.06 756.00,94.82 C742.21,104.04 729.74,117.27 722.30,130.57 C720.94,133.01 719.53,134.97 719.16,134.94 C718.80,134.90 716.03,130.97 713.00,126.19 Z" fill="rgb(250,235,6)"/>
  </g>
</svg>
